<?xml version="1.0" encoding="UTF-8"?>
<svg id="Layer_1" data-name="Layer 1" xmlns="http://www.w3.org/2000/svg" xmlns:xlink="http://www.w3.org/1999/xlink" viewBox="0 0 1920 1080">
  <defs>
    <linearGradient id="linear-gradient" x1="21.04" y1="240.88" x2="1850.46" y2="823.67" gradientUnits="userSpaceOnUse">
      <stop offset=".3" stop-color="#473788"/>
      <stop offset=".86" stop-color="#2c2255"/>
    </linearGradient>
    <linearGradient id="linear-gradient-2" x1="223.41" y1="1963.39" x2="223.41" y2="2089.42" gradientTransform="translate(96.97 2553.18) scale(1 -1)" gradientUnits="userSpaceOnUse">
      <stop offset=".3" stop-color="#473788"/>
      <stop offset=".87" stop-color="#2c2255"/>
    </linearGradient>
    <linearGradient id="linear-gradient-3" x1="223.41" y1="1962.67" x2="223.41" y2="2088.7" xlink:href="#linear-gradient-2"/>
    <linearGradient id="linear-gradient-4" x1="223.41" y1="1964.87" x2="223.41" y2="2088.7" gradientTransform="translate(96.97 2553.18) scale(1 -1)" xlink:href="#linear-gradient"/>
  </defs>
  <rect width="1920" height="1080" fill="url(#linear-gradient)"/>
  <g>
    <g>
      <g>
        <path d="M269.48,518.53h-28.16c3.73,12.79,10.65,24.26,20.78,34.38,16.15,16.15,35.57,24.21,58.28,24.21,4.54,0,8.94-.34,13.21-.98,17.1-2.58,32.08-10.31,44.91-23.23,10.2-10.13,17.16-21.59,20.92-34.38h-129.93Z" fill="#2c2255"/>
        <path d="M252.4,479.85h-14.59c-.56,3.34-.92,6.71-1.09,10.09h167.31c-.17-3.38-.53-6.75-1.1-10.09M238.17,500.21c.17,3.39.53,6.69,1.07,9.92h162.26c.54-3.23.91-6.53,1.08-9.92" fill="#2c2255"/>
        <path d="M399.42,471.26c-3.75-12.83-10.72-24.34-20.92-34.54-12.8-12.8-27.73-20.47-44.78-23.06-4.42-.67-8.87-1-13.34-1-22.71,0-42.13,8.02-58.28,24.06-10.13,10.2-17.06,21.72-20.78,34.54" fill="#2c2255"/>
        <path d="M233.28,494.99c0-43.43,32.62-79.52,75.05-85.87-1.05-.04-2.11-.08-3.17-.08-47.62,0-86.23,38.48-86.23,85.95s38.6,85.95,86.23,85.95c1.07,0,2.12-.04,3.18-.08-42.44-6.35-75.06-42.43-75.06-85.87ZM689.68,402.49h16.82v21.86h-16.82v-21.86Z" fill="#f7941e"/>
        <path d="M545.04,491.63v8.41h-77.91c.74,11.74,4.3,20.73,10.67,26.91,6.37,6.19,15.24,9.27,26.61,9.27,6.59,0,12.97-.81,19.16-2.42,6.18-1.61,12.31-4.04,18.11-7.27v16.22c-5.8,2.59-12.14,4.59-18.62,5.97-6.47,1.37-13.06,2.05-19.67,2.05-16.65,0-29.84-4.85-39.56-14.54-9.72-9.69-14.59-22.8-14.59-39.33s4.61-30.65,13.84-40.68c9.23-10.04,21.67-15.05,37.33-15.05,14.04,0,25.15,4.52,33.32,13.56,8.17,9.03,12.26,21.32,12.26,36.85M528.83,488.26c-.13-11.1-2.75-18.59-7.88-24.18-5.13-5.59-11.92-8.39-20.37-8.39-9.57,0-17.23,2.7-22.98,8.11-5.75,5.4-9.06,13.02-9.93,22.77l61.14,1.68h0ZM634.18,447.9v15.81c-4.85-2.67-9.71-4.67-14.59-6.01-4.81-1.33-9.78-2-14.77-2-11.12,0-19.76,3.53-25.91,10.58-6.15,7.05-9.23,16.95-9.23,29.68s3.08,22.64,9.23,29.69c6.15,7.06,14.78,10.58,25.91,10.58,4.97,0,9.9-.67,14.77-2,4.87-1.34,9.74-3.34,14.59-6.01v15.84c-4.75,2.23-9.74,3.91-14.87,5.03-5.13,1.12-10.58,1.68-16.36,1.68-15.72,0-28.21-4.94-37.47-14.82-9.26-9.88-13.89-23.21-13.89-39.98s4.67-30.41,14.03-40.17c9.35-9.75,22.17-14.63,38.44-14.63,5.28,0,10.44.55,15.48,1.63,5.04,1.09,9.95,2.73,14.63,4.89M650.99,402.49h16.82v144.64h-16.82v-144.64ZM689.68,444.53h16.82v104.27h-16.82v-104.27ZM743.49,531.99v55.5h-16.82v-144.64h16.82v15.91c3.52-6.23,7.96-10.87,13.32-13.89,5.37-3.02,11.77-4.54,19.23-4.54,12.36,0,22.41,5.05,30.14,15.16,7.73,10.1,11.59,23.39,11.59,39.85s-3.86,29.75-11.59,39.85c-7.73,10.1-17.77,15.16-30.14,15.16-7.46,0-13.86-1.51-19.23-4.54-5.37-3.02-9.81-7.65-13.32-13.89M802.82,495.96c0-12.61-2.6-22.51-7.78-29.68-5.19-7.17-12.32-10.76-21.39-10.76s-16.21,3.59-21.39,10.76c-5.19,7.18-7.79,17.07-7.79,29.68s2.6,22.51,7.79,29.69c5.19,7.18,12.32,10.76,21.39,10.76s16.2-3.59,21.39-10.76c5.19-7.17,7.78-17.07,7.78-29.69M901.59,446.22v16.84c-4.78-2.46-9.83-4.33-15.06-5.58-5.21-1.24-10.6-1.86-16.17-1.86-8.49,0-14.86,1.3-19.1,3.9-4.25,2.6-6.36,6.51-6.36,11.71,0,3.96,1.51,7.08,4.55,9.34,3.04,2.26,9.14,4.41,18.31,6.46l5.85,1.3c12.15,2.6,20.78,6.27,25.89,11.01,5.11,4.74,7.67,11.36,7.67,19.84,0,9.67-3.83,17.32-11.49,22.96-7.65,5.63-18.17,8.46-31.55,8.46-5.58,0-11.39-.54-17.43-1.63-6.04-1.08-12.41-2.71-19.1-4.88v-17.66c6.33,3.29,12.55,5.75,18.68,7.39,6.14,1.64,12.21,2.46,18.22,2.46,8.06,0,14.25-1.38,18.59-4.13,4.34-2.76,6.5-6.65,6.5-11.67,0-4.65-1.56-8.21-4.69-10.69-3.13-2.48-9.99-4.86-20.59-7.16l-5.95-1.39c-10.59-2.23-18.25-5.65-22.96-10.27-4.71-4.62-7.06-10.95-7.06-19.01,0-9.79,3.47-17.35,10.41-22.68,6.94-5.33,16.79-8,29.56-8,6.32,0,12.27.46,17.85,1.39,5.58.94,10.72,2.33,15.44,4.19M1009.22,491.63v8.41h-78.92c.75,11.74,4.3,20.73,10.67,26.91,6.37,6.19,15.24,9.27,26.61,9.27,6.59,0,12.97-.81,19.16-2.42,6.19-1.61,12.32-4.04,19.12-7.27v16.22c-6.81,2.59-13.15,4.59-19.63,5.97-6.46,1.37-13.05,2.05-19.66,2.05-16.66,0-29.84-4.85-39.56-14.54-9.73-9.69-14.59-22.8-14.59-39.33s4.61-30.65,13.84-40.68c9.23-10.04,21.68-15.05,37.33-15.05,14.04,0,25.15,4.52,33.32,13.56,8.17,9.03,12.25,21.32,12.25,36.85M992.01,488.26c-.13-11.1-2.75-18.59-7.88-24.18-5.13-5.59-11.92-8.39-20.36-8.39-9.57,0-17.23,2.7-22.97,8.11-5.75,5.4-9.06,13.02-9.93,22.77l61.14,1.68h0Z" fill="#fff"/>
        <path d="M377.31,489.94c-.27-3.41-.85-6.79-1.73-10.09h-110.41c-.88,3.3-1.46,6.68-1.73,10.09h113.87,0Z" fill="url(#linear-gradient-2)"/>
        <path d="M377.31,500.03h-113.87c.27,3.41.85,6.79,1.73,10.09h110.41c.88-3.3,1.46-6.68,1.73-10.09Z" fill="url(#linear-gradient-3)"/>
        <path d="M320.38,550.96c22.53,0,41.95-13.27,50.9-32.43h-101.79c8.94,19.15,28.37,32.43,50.9,32.43Z" fill="url(#linear-gradient-4)"/>
        <path d="M256.14,498.35h146.33c.08-1.34.12-2.68.12-4.04,0-1.47-.06-2.92-.15-4.37h-164.27c-.09,1.45-.15,2.9-.15,4.37,0,1.36.04,2.7.12,4.04h17.99ZM269.22,471.44h-27.91c-.91,2.74-1.51,5.55-2.07,8.41h161.74c-.56-2.84-1.3-5.65-2.21-8.41M390.41,510.13h-151.17c.55,2.86,1.18,5.67,2.08,8.41h157.99c.9-2.76,1.63-5.57,2.18-8.41h-11.08Z" fill="#fff"/>
      </g>
      <g>
        <path d="M1162.83,507.19c-2.62,5.74-6.35,10.17-11.17,13.28-4.83,3.12-10.43,4.67-16.82,4.67s-11.9-1.56-16.76-4.67c-4.86-3.12-8.65-7.56-11.34-13.34-2.7-5.77-4.05-12.5-4.05-20.18v-6.61c0-7.75,1.35-14.5,4.05-20.23,2.7-5.74,6.46-10.16,11.29-13.28,4.83-3.12,10.39-4.67,16.7-4.67s12.01,1.56,16.87,4.67c4.86,3.12,8.61,7.54,11.23,13.28,2.62,5.74,3.93,12.48,3.93,20.23v6.61c0,7.75-1.31,14.5-3.93,20.23ZM1151.65,457.88c-4.07-5.32-9.71-7.98-16.93-7.98s-12.77,2.68-16.87,8.04c-4.1,5.36-6.16,12.79-6.16,22.29v6.73c0,9.58,2.07,17.06,6.21,22.46,4.14,5.4,9.78,8.09,16.93,8.09s12.94-2.66,16.93-7.98c3.99-5.32,5.99-12.84,5.99-22.57v-6.73c0-9.58-2.03-17.02-6.1-22.34Z" fill="#fff"/>
        <path d="M1176.9,464.04h8.32l.34,8.89c2.05-3.04,4.69-5.47,7.92-7.3,3.23-1.82,6.78-2.74,10.66-2.74,12.77,0,19.15,7.3,19.15,21.89v39.22h-8.78v-39.22c0-5.17-1.08-8.87-3.25-11.12-2.17-2.24-5.38-3.36-9.63-3.36-3.72,0-6.95,1.12-9.69,3.36-2.74,2.24-4.83,5.07-6.27,8.49v41.84h-8.78v-59.96Z" fill="#fff"/>
        <path d="M1235.61,443.29h8.66v80.71h-8.66v-80.71Z" fill="#fff"/>
        <path d="M1260.35,443.69c.99-1.03,2.32-1.54,3.99-1.54s3,.51,3.99,1.54c.99,1.03,1.48,2.3,1.48,3.82s-.48,2.66-1.42,3.65c-.95.99-2.3,1.48-4.05,1.48s-3-.49-3.99-1.48c-.99-.99-1.48-2.2-1.48-3.65,0-1.52.49-2.79,1.48-3.82ZM1259.89,464.04h8.66v59.96h-8.66v-59.96Z" fill="#fff"/>
        <path d="M1283.26,464.04h8.32l.34,8.89c2.05-3.04,4.69-5.47,7.92-7.3,3.23-1.82,6.78-2.74,10.66-2.74,12.77,0,19.15,7.3,19.15,21.89v39.22h-8.78v-39.22c0-5.17-1.08-8.87-3.25-11.12-2.17-2.24-5.38-3.36-9.63-3.36-3.72,0-6.95,1.12-9.69,3.36-2.74,2.24-4.83,5.07-6.27,8.49v41.84h-8.78v-59.96Z" fill="#fff"/>
        <path d="M1350.8,521.38c-4.14-2.51-7.35-6.02-9.63-10.54-2.28-4.52-3.42-9.67-3.42-15.45,0-6.69,1.2-12.48,3.59-17.39,2.39-4.9,5.59-8.64,9.58-11.23,3.99-2.58,8.26-3.88,12.83-3.88,7.9,0,13.93,2.62,18.07,7.87,4.14,5.24,6.21,12.12,6.21,20.63v4.45h-41.5c.15,6.46,1.94,11.78,5.36,15.96,3.42,4.18,7.98,6.27,13.68,6.27,6.54,0,11.93-2.74,16.19-8.21l5.24,4.1c-2.21,3.35-5.09,6.04-8.66,8.09-3.57,2.05-7.98,3.08-13.22,3.08s-10.17-1.25-14.31-3.76ZM1352.46,475.04c-3.04,3.31-4.9,7.81-5.59,13.51h32.49v-.68c-.23-5.09-1.62-9.33-4.16-12.71-2.55-3.38-6.37-5.07-11.46-5.07-4.49,0-8.25,1.65-11.29,4.96Z" fill="#fff"/>
        <path d="M1460.7,513.34c-2.24,3.84-5.36,6.77-9.35,8.78-3.99,2.01-8.53,3.02-13.62,3.02-7.98,0-14.36-2.05-19.15-6.16s-7.18-10.11-7.18-18.01h13c0,4.71,1.18,8.19,3.53,10.43,2.35,2.24,5.62,3.36,9.8,3.36s7.26-1.31,9.69-3.93c2.43-2.62,3.65-6.33,3.65-11.12v-57.23h13v57.23c0,5.24-1.12,9.79-3.36,13.62Z" fill="#fff"/>
        <path d="M1521.4,524h-11.74l-.34-6.04c-3.95,4.79-9.69,7.18-17.21,7.18-6.31,0-11.23-1.84-14.76-5.53-3.53-3.69-5.3-9.4-5.3-17.16v-38.99h12.54v39.1c0,4.41.95,7.56,2.85,9.46,1.9,1.9,4.33,2.85,7.3,2.85,7.07,0,11.82-2.58,14.25-7.75v-43.66h12.43v60.53Z" fill="#fff"/>
        <path d="M1531.6,477.03c1.94-4.64,4.69-8.25,8.26-10.83,3.57-2.58,7.79-3.88,12.65-3.88,6.76,0,12.08,2.28,15.96,6.84v-26.68h12.54v81.51h-11.29l-.57-6.38c-4.03,5.02-9.62,7.52-16.76,7.52-4.71,0-8.87-1.33-12.48-3.99-3.61-2.66-6.38-6.33-8.32-11-1.94-4.67-2.91-9.94-2.91-15.79v-1.14c0-6.16.97-11.55,2.91-16.19ZM1544.66,509.18c2.35,3.8,6,5.7,10.94,5.7,5.85,0,10.15-2.66,12.88-7.98v-26.68c-1.22-2.35-2.89-4.22-5.02-5.59-2.13-1.37-4.71-2.05-7.75-2.05-4.94,0-8.61,1.9-11,5.7-2.39,3.8-3.59,8.78-3.59,14.93v1.14c0,6.08,1.18,11.02,3.53,14.82Z" fill="#fff"/>
        <path d="M1591.74,477.03c1.98-4.64,4.77-8.25,8.38-10.83,3.61-2.58,7.88-3.88,12.83-3.88,7.14,0,12.69,2.43,16.64,7.3l.57-6.16h11.29v59.05c0,7.98-2.47,14.19-7.41,18.64-4.94,4.45-11.44,6.67-19.49,6.67-3.95,0-8.08-.82-12.37-2.45-4.29-1.64-7.66-4.16-10.09-7.58l5.93-7.52c4.33,5.17,9.58,7.75,15.73,7.75,4.79,0,8.51-1.33,11.17-3.99,2.66-2.66,3.99-6.42,3.99-11.29v-4.45c-3.88,4.56-9.23,6.84-16.07,6.84-4.86,0-9.1-1.33-12.71-3.99-3.61-2.66-6.4-6.33-8.38-11-1.98-4.67-2.96-9.94-2.96-15.79v-1.14c0-6.16.99-11.55,2.96-16.19ZM1604.91,509.12c2.47,3.84,6.14,5.76,11,5.76,5.85,0,10.18-2.58,13-7.75v-27.13c-2.74-4.94-7.03-7.41-12.88-7.41-4.94,0-8.65,1.92-11.12,5.76-2.47,3.84-3.71,8.8-3.71,14.88v1.14c0,6,1.23,10.93,3.71,14.76Z" fill="#fff"/>
        <path d="M1661.96,521.32c-4.33-2.55-7.68-6.04-10.03-10.49-2.36-4.45-3.53-9.48-3.53-15.1,0-6.92,1.21-12.9,3.65-17.96,2.43-5.05,5.7-8.89,9.8-11.51,4.1-2.62,8.66-3.93,13.68-3.93,8.44,0,14.8,2.7,19.09,8.09,4.29,5.4,6.44,12.58,6.44,21.55v5.47h-40.13c.3,5.17,1.96,9.42,4.96,12.77,3,3.35,6.93,5.02,11.8,5.02,6.31,0,11.47-2.62,15.5-7.87l6.84,6.27c-2.21,3.35-5.21,6.1-9.01,8.27-3.8,2.17-8.48,3.25-14.02,3.25s-10.72-1.27-15.05-3.82ZM1665.95,476.41c-2.51,2.78-4.1,6.67-4.79,11.69h27.59v-1.03c-.23-4.26-1.41-7.79-3.53-10.6-2.13-2.81-5.4-4.22-9.8-4.22-3.8,0-6.95,1.39-9.46,4.16Z" fill="#fff"/>
      </g>
      <rect x="1055.03" y="442.99" width="8" height="104" fill="#999"/>
    </g>
    <g>
      <g>
        <path d="M383.93,680.32c-1.2,2.05-2.87,3.62-5,4.7-2.14,1.08-4.57,1.62-7.29,1.62-4.27,0-7.69-1.1-10.25-3.29-2.56-2.2-3.84-5.41-3.84-9.64h6.95c0,2.52.63,4.38,1.89,5.58,1.26,1.2,3.01,1.8,5.25,1.8s3.88-.7,5.19-2.11c1.3-1.4,1.95-3.38,1.95-5.95v-30.62h6.95v30.62c0,2.81-.6,5.24-1.8,7.29Z" fill="#fff"/>
        <path d="M407.2,659.68c-1.06-1.06-2.58-1.59-4.58-1.59-1.83,0-3.3.46-4.42,1.37-1.12.92-1.68,2.04-1.68,3.39h-6.71c0-1.67.55-3.26,1.65-4.79,1.1-1.53,2.64-2.75,4.64-3.66,1.99-.92,4.29-1.37,6.89-1.37,3.78,0,6.8.95,9.06,2.84,2.26,1.89,3.39,4.62,3.39,8.2v14.64c0,2.72.41,5,1.22,6.83v.49h-6.89c-.33-.69-.59-1.77-.79-3.23-2.4,2.56-5.35,3.84-8.85,3.84-2.16,0-4.06-.42-5.7-1.25-1.65-.83-2.94-1.98-3.87-3.45-.94-1.46-1.4-3.11-1.4-4.94,0-3.46,1.29-6.1,3.87-7.93,2.58-1.83,6.19-2.74,10.83-2.74h4.94v-2.32c0-1.83-.53-3.27-1.59-4.33ZM405.86,679.96c1.34-.83,2.32-1.86,2.93-3.08v-6.28h-4.21c-2.85,0-5.02.49-6.53,1.46-1.51.97-2.26,2.38-2.26,4.21,0,1.46.49,2.65,1.46,3.57.98.91,2.32,1.37,4.03,1.37s3.23-.42,4.57-1.25Z" fill="#fff"/>
        <path d="M434.95,686.03h-5.67l-11.47-32.39h6.83l7.5,23.73,7.26-23.73h6.89l-11.35,32.39Z" fill="#fff"/>
        <path d="M465.64,659.68c-1.06-1.06-2.58-1.59-4.58-1.59-1.83,0-3.3.46-4.42,1.37-1.12.92-1.68,2.04-1.68,3.39h-6.71c0-1.67.55-3.26,1.65-4.79,1.1-1.53,2.64-2.75,4.64-3.66,1.99-.92,4.29-1.37,6.89-1.37,3.78,0,6.8.95,9.06,2.84,2.26,1.89,3.39,4.62,3.39,8.2v14.64c0,2.72.41,5,1.22,6.83v.49h-6.89c-.33-.69-.59-1.77-.79-3.23-2.4,2.56-5.35,3.84-8.85,3.84-2.16,0-4.06-.42-5.7-1.25-1.65-.83-2.94-1.98-3.87-3.45-.94-1.46-1.4-3.11-1.4-4.94,0-3.46,1.29-6.1,3.87-7.93,2.58-1.83,6.19-2.74,10.83-2.74h4.94v-2.32c0-1.83-.53-3.27-1.59-4.33ZM464.29,679.96c1.34-.83,2.32-1.86,2.93-3.08v-6.28h-4.21c-2.85,0-5.02.49-6.53,1.46-1.51.97-2.26,2.38-2.26,4.21,0,1.46.49,2.65,1.46,3.57.98.91,2.32,1.37,4.03,1.37s3.23-.42,4.57-1.25Z" fill="#fff"/>
        <path d="M531.45,683.28h-44.59v-5.25h16.35v-12.38h6.22v12.38h22.02v5.25ZM526.76,647.9c0,4.51-.11,8.45-.34,11.8-.22,3.36-.82,7.39-1.8,12.11l-6.16-.61c.73-3.54,1.28-7.12,1.65-10.73l-28.67,1.65-.92-5.49,29.95-1.1c.08-1.75.12-4.09.12-7.02h-28.55v-5.12h34.71v4.51Z" fill="#fff"/>
        <path d="M576.59,683.04h-44.71v-5.25h44.71v5.25ZM571.71,667.67h-34.4v-24.4h33.98v5.19h-27.82v14.03h28.24v5.19Z" fill="#fff"/>
        <path d="M621.61,666.57h-44.77v-4.76h44.77v4.76ZM616.18,681.15h-27.82v3.36h29.28v4.39h-35.56v-11.9h27.88v-3.05h-27.94v-4.39h34.16v11.59ZM616.12,651.44h-27.39v3.17h28.18v4.39h-34.4v-11.59h27.33v-3.05h-27.45v-4.33h33.73v11.41Z" fill="#fff"/>
        <path d="M645.64,647.96h-13.73v-5.55h34.34v5.55h-13.79v38.06h-6.83v-38.06Z" fill="#fff"/>
        <path d="M665.22,699.08c-1.02,0-2.13-.14-3.35-.43v-5.19l1.4.06c1.83,0,3.23-.35,4.21-1.04.98-.69,1.75-1.91,2.32-3.66l1.16-2.99-11.47-32.21h7.2l7.32,22.75,7.02-22.75h7.08l-12.99,37.39c-1.91,5.37-5.21,8.05-9.88,8.05Z" fill="#fff"/>
        <path d="M690.05,653.64h6.1l.3,3.35c2.28-2.64,5.27-3.96,8.97-3.96,4.03,0,7.14,1.49,9.33,4.45,2.2,2.97,3.29,6.97,3.29,12.02v.67c0,3.17-.49,6.01-1.46,8.51-.98,2.5-2.41,4.45-4.3,5.86-1.89,1.4-4.14,2.1-6.74,2.1-3.7,0-6.65-1.22-8.85-3.66v15.49h-6.65v-44.83ZM709.48,661.6c-1.32-2.05-3.3-3.08-5.95-3.08-3.13,0-5.41,1.32-6.83,3.96v14.82c1.46,2.68,3.76,4.03,6.89,4.03,2.6,0,4.56-1.05,5.89-3.14,1.32-2.09,1.98-4.77,1.98-8.02v-.67c0-3.21-.66-5.85-1.98-7.9Z" fill="#fff"/>
        <path d="M727.81,684.59c-2.32-1.36-4.11-3.23-5.37-5.61-1.26-2.38-1.89-5.07-1.89-8.08,0-3.7.65-6.9,1.95-9.61,1.3-2.7,3.05-4.76,5.25-6.16,2.2-1.4,4.64-2.11,7.32-2.11,4.51,0,7.92,1.45,10.22,4.33,2.3,2.89,3.45,6.73,3.45,11.53v2.93h-21.47c.16,2.77,1.05,5.04,2.65,6.83,1.61,1.79,3.71,2.68,6.31,2.68,3.38,0,6.14-1.4,8.29-4.21l3.66,3.36c-1.18,1.79-2.79,3.26-4.82,4.42-2.04,1.16-4.54,1.74-7.5,1.74s-5.73-.68-8.05-2.04ZM729.94,660.56c-1.34,1.49-2.2,3.57-2.56,6.25h14.76v-.55c-.12-2.28-.75-4.17-1.89-5.67-1.14-1.5-2.89-2.26-5.25-2.26-2.03,0-3.72.74-5.06,2.23Z" fill="#fff"/>
        <path d="M769.38,674.29c-.96-.79-2.86-1.5-5.7-2.11-3.78-.77-6.67-1.91-8.66-3.42-1.99-1.5-2.99-3.54-2.99-6.1,0-1.75.51-3.36,1.53-4.82,1.02-1.46,2.46-2.63,4.33-3.51,1.87-.88,4.03-1.31,6.47-1.31,2.6,0,4.87.45,6.8,1.34,1.93.9,3.42,2.12,4.45,3.66,1.04,1.55,1.55,3.28,1.55,5.19h-6.65c0-1.38-.55-2.59-1.65-3.63-1.1-1.04-2.6-1.56-4.51-1.56s-3.3.43-4.3,1.28c-1,.85-1.49,1.89-1.49,3.11s.48,2.1,1.43,2.74c.96.65,2.79,1.28,5.52,1.89,4.03.85,7.01,2.03,8.97,3.54,1.95,1.51,2.93,3.62,2.93,6.34,0,1.87-.54,3.54-1.62,5-1.08,1.46-2.59,2.61-4.54,3.45-1.95.83-4.21,1.25-6.77,1.25-2.81,0-5.24-.51-7.29-1.53s-3.61-2.34-4.67-3.96c-1.06-1.62-1.59-3.38-1.59-5.25h6.53c.08,1.91.81,3.34,2.2,4.27,1.38.94,3.01,1.4,4.88,1.4,1.99,0,3.54-.4,4.64-1.19,1.1-.79,1.65-1.82,1.65-3.08s-.48-2.23-1.43-3.02Z" fill="#fff"/>
        <path d="M799.18,679.68c1.3-1.1,2.03-2.52,2.2-4.27h6.28c-.08,2.04-.72,3.92-1.92,5.64-1.2,1.73-2.79,3.09-4.76,4.09-1.97,1-4.12,1.49-6.44,1.49-3.17,0-5.86-.72-8.05-2.17-2.2-1.44-3.84-3.38-4.94-5.82-1.1-2.44-1.65-5.19-1.65-8.24v-1.16c0-3.05.55-5.79,1.65-8.23,1.1-2.44,2.75-4.38,4.94-5.83,2.2-1.44,4.86-2.17,7.99-2.17,2.56,0,4.82.51,6.77,1.53,1.95,1.02,3.49,2.43,4.61,4.24,1.12,1.81,1.72,3.89,1.8,6.25h-6.28c-.12-1.95-.8-3.56-2.04-4.82-1.24-1.26-2.88-1.89-4.91-1.89-2.85,0-4.87,1.04-6.07,3.11-1.2,2.07-1.8,4.68-1.8,7.81v1.16c0,3.17.6,5.79,1.8,7.84,1.2,2.05,3.22,3.08,6.07,3.08,1.87,0,3.46-.55,4.76-1.65Z" fill="#fff"/>
        <path d="M811.13,653.64h6.34l.18,3.72c1.75-2.89,4.27-4.33,7.56-4.33.45,0,.92.04,1.43.12.51.08.86.16,1.07.24l-.06,6.22c-1.14-.16-2.07-.24-2.81-.24-1.75,0-3.22.38-4.42,1.13-1.2.75-2.08,1.8-2.65,3.14v22.39h-6.65v-32.39Z" fill="#fff"/>
        <path d="M832.24,642.44c.69-.67,1.63-1.01,2.81-1.01s2.11.34,2.81,1.01c.69.67,1.04,1.54,1.04,2.59s-.35,1.92-1.04,2.59c-.69.67-1.63,1.01-2.81,1.01s-2.12-.34-2.81-1.01c-.69-.67-1.04-1.53-1.04-2.59s.34-1.92,1.04-2.59ZM831.69,653.64h6.65v32.39h-6.65v-32.39Z" fill="#fff"/>
        <path d="M844.07,653.64h6.1l.31,3.35c2.28-2.64,5.27-3.96,8.97-3.96,4.03,0,7.14,1.49,9.33,4.45,2.2,2.97,3.29,6.97,3.29,12.02v.67c0,3.17-.49,6.01-1.46,8.51-.98,2.5-2.41,4.45-4.3,5.86-1.89,1.4-4.14,2.1-6.74,2.1-3.7,0-6.65-1.22-8.84-3.66v15.49h-6.65v-44.83ZM863.5,661.6c-1.32-2.05-3.3-3.08-5.95-3.08-3.13,0-5.41,1.32-6.83,3.96v14.82c1.46,2.68,3.76,4.03,6.89,4.03,2.6,0,4.56-1.05,5.89-3.14,1.32-2.09,1.98-4.77,1.98-8.02v-.67c0-3.21-.66-5.85-1.98-7.9Z" fill="#fff"/>
        <path d="M885.52,680.32c.59.51,1.45.76,2.59.76.89,0,1.75-.1,2.56-.3v5.19c-1.5.45-3.03.67-4.58.67-2.48,0-4.45-.71-5.92-2.13s-2.2-3.7-2.2-6.83v-19.09h-5.55v-4.94h5.55v-7.99h6.65v7.99h5.92v4.94h-5.92v18.79c0,1.46.29,2.45.88,2.96Z" fill="#fff"/>
        <path d="M946,683.28h-44.59v-5.25h16.35v-12.38h6.22v12.38h22.02v5.25ZM941.3,647.9c0,4.51-.11,8.45-.33,11.8-.22,3.36-.82,7.39-1.8,12.11l-6.16-.61c.73-3.54,1.28-7.12,1.65-10.73l-28.67,1.65-.92-5.49,29.95-1.1c.08-1.75.12-4.09.12-7.02h-28.55v-5.12h34.71v4.51Z" fill="#fff"/>
        <path d="M991.14,683.04h-44.71v-5.25h44.71v5.25ZM986.26,667.67h-34.4v-24.4h33.98v5.19h-27.82v14.03h28.24v5.19Z" fill="#fff"/>
        <path d="M1036.16,683.65h-44.71v-5.25h19.15v-8.17h-13.85v-16.59h27.94v-6.1h-28v-5.18h34.28v16.29h-28v6.4h29.1v5.19h-15.25v8.17h19.34v5.25Z" fill="#fff"/>
        <path d="M1067.57,642.35c1.87.85,3.32,2.05,4.36,3.6,1.04,1.55,1.56,3.32,1.56,5.31,0,2.44-.81,4.54-2.44,6.31s-3.8,2.94-6.53,3.51v4.09c4.43-.28,8.36-.69,11.77-1.22l.37,4.63c-4.47.86-9.16,1.42-14.06,1.71-4.9.29-10.08.43-15.53.43l-.67-5.06c3.7,0,7.65-.06,11.84-.18v-4.33c-2.81-.53-5.04-1.68-6.71-3.45-1.67-1.77-2.5-3.91-2.5-6.43,0-1.99.52-3.76,1.56-5.31,1.04-1.54,2.49-2.74,4.36-3.6,1.87-.86,3.98-1.28,6.34-1.28s4.41.43,6.28,1.28ZM1086.97,688.41h-33.98v-14.15h6.28v9.03h27.7v5.12ZM1056.62,647.35c-1.2.94-1.8,2.24-1.8,3.9s.6,2.92,1.8,3.87c1.2.96,2.75,1.43,4.67,1.43s3.51-.48,4.67-1.43c1.16-.96,1.74-2.25,1.74-3.87s-.58-2.97-1.74-3.9c-1.16-.94-2.71-1.4-4.67-1.4s-3.47.47-4.67,1.4ZM1085.32,655.16h6.53v5.31h-6.53v17.08h-6.22v-38.55h6.22v16.16Z" fill="#2ca6e0"/>
        <path d="M1112.56,657.88c1.97,2.75,4.79,4.77,8.45,6.07l-3.11,5.06c-2.6-.94-4.88-2.31-6.83-4.12-1.95-1.81-3.48-3.91-4.57-6.31-1.1,2.69-2.64,5.01-4.64,6.98-1.99,1.97-4.41,3.47-7.26,4.48l-3.23-5.12c3.74-1.3,6.66-3.42,8.75-6.37,2.09-2.95,3.14-6.17,3.14-9.67v-1.16h-10.13v-5.12h26.41v5.12h-9.94v1.22c0,3.21.98,6.19,2.96,8.94ZM1133.76,688.47h-33.37v-15.8h6.16v10.68h27.21v5.12ZM1132.54,675.9h-6.28v-18.42h-8.48v-5.19h8.48v-13.3h6.28v36.9Z" fill="#2ca6e0"/>
        <path d="M1166.88,651.87h-29.34v-5.19h11.53v-7.14h6.34v7.14h11.47v5.19ZM1158.67,656.5c1.89,1.02,3.38,2.43,4.45,4.24,1.08,1.81,1.62,3.85,1.62,6.13s-.54,4.38-1.62,6.19c-1.08,1.81-2.55,3.21-4.42,4.21-1.87,1-4.01,1.49-6.41,1.49s-4.54-.5-6.44-1.49c-1.89-1-3.38-2.4-4.45-4.21-1.08-1.81-1.62-3.87-1.62-6.19s.54-4.32,1.62-6.13c1.08-1.81,2.57-3.22,4.48-4.24,1.91-1.02,4.05-1.52,6.4-1.52s4.48.51,6.38,1.52ZM1147.57,662.02c-1.24,1.24-1.86,2.86-1.86,4.85s.62,3.65,1.86,4.85c1.24,1.2,2.81,1.8,4.73,1.8s3.48-.6,4.7-1.8c1.22-1.2,1.83-2.82,1.83-4.85s-.61-3.61-1.83-4.85c-1.22-1.24-2.79-1.86-4.7-1.86s-3.49.62-4.73,1.86ZM1177.25,689.44h-6.28v-50.51h6.28v50.51Z" fill="#2ca6e0"/>
        <path d="M1209.3,664.49c1.65,3.74,4.2,6.53,7.66,8.36l-3.6,4.88c-4.39-2.36-7.52-6.42-9.39-12.2-1.75,6.55-4.9,11.22-9.46,14.03l-3.84-4.94c3.5-1.99,6.06-5,7.69-9.03s2.44-8.64,2.44-13.85v-2.26h-8.6v-5.12h22.51v5.12h-7.87v2.26c0,4.76.82,9.01,2.47,12.75ZM1233.98,689.44h-5.98v-25.56h-4.76v23.12h-5.86v-47.21h5.86v18.85h4.76v-19.7h5.98v50.51Z" fill="#2ca6e0"/>
        <path d="M1257.22,656.56c1.95,2.72,4.8,4.72,8.54,5.98l-3.11,4.94c-2.68-.94-4.99-2.28-6.92-4.03s-3.45-3.82-4.54-6.22c-2.32,5.53-6.28,9.23-11.89,11.1l-3.23-4.88c3.82-1.3,6.76-3.41,8.81-6.31,2.05-2.91,3.08-6.11,3.08-9.61v-.37h-10.25v-5.12h26.54v5.12h-9.94v.43c0,3.25.98,6.24,2.93,8.97ZM1275.21,689.44h-6.28v-12.63h-26.35v-5.12h32.63v17.75ZM1275.21,651.5h6.71v5.31h-6.71v12.56h-6.28v-30.44h6.28v12.56Z" fill="#2ca6e0"/>
        <path d="M1302.54,655.65c1.95,2.85,4.76,4.88,8.42,6.1l-3.23,4.94c-5.21-1.83-8.91-5.27-11.1-10.31-1.1,2.81-2.66,5.23-4.7,7.26s-4.51,3.58-7.44,4.63l-3.23-5.12c3.94-1.3,6.94-3.48,9-6.53s3.08-6.49,3.08-10.31v-4.7h6.28v4.45c0,3.54.98,6.73,2.93,9.58ZM1318.22,672.54c2.97,1.71,4.45,4.09,4.45,7.14s-1.47,5.43-4.42,7.14c-2.95,1.71-7.05,2.56-12.29,2.56s-9.28-.86-12.23-2.56c-2.95-1.71-4.42-4.09-4.42-7.14s1.48-5.43,4.45-7.14c2.97-1.71,7.04-2.56,12.2-2.56s9.29.85,12.26,2.56ZM1298.21,676.18c-1.83.83-2.74,2-2.74,3.51s.91,2.66,2.74,3.48c1.83.81,4.41,1.22,7.75,1.22s5.98-.4,7.81-1.22c1.83-.81,2.75-1.97,2.75-3.48s-.92-2.72-2.75-3.54c-1.83-.81-4.43-1.22-7.81-1.22s-5.92.42-7.75,1.25ZM1322.61,668.58h-6.28v-14.76h-9.58v-5.25h9.58v-9.64h6.28v29.64Z" fill="#2ca6e0"/>
        <path d="M1355.18,651.81h-28.79v-5.19h11.41v-6.96h6.22v6.96h11.16v5.19ZM1347.28,656.5c1.89,1.02,3.37,2.43,4.42,4.24,1.06,1.81,1.59,3.85,1.59,6.13s-.53,4.38-1.59,6.19c-1.06,1.81-2.52,3.21-4.39,4.21s-3.99,1.49-6.34,1.49-4.48-.5-6.38-1.49-3.37-2.4-4.42-4.21c-1.06-1.81-1.59-3.87-1.59-6.19s.54-4.32,1.62-6.13c1.08-1.81,2.55-3.22,4.42-4.24,1.87-1.02,3.98-1.52,6.34-1.52s4.42.51,6.31,1.52ZM1336.3,662.02c-1.2,1.24-1.8,2.86-1.8,4.85s.6,3.65,1.8,4.85c1.2,1.2,2.75,1.8,4.67,1.8s3.39-.6,4.57-1.8,1.77-2.82,1.77-4.85-.6-3.61-1.8-4.85c-1.2-1.24-2.71-1.86-4.54-1.86s-3.47.62-4.67,1.86ZM1365,659h7.38v5.19h-7.38v25.25h-6.16v-50.51h6.16v20.07Z" fill="#fff"/>
        <path d="M1390.59,642.47c1.65.69,3.06,1.65,4.24,2.87h11.59v-6.4h6.22v28.43h-6.22v-5.73h-11.41c-1.18,1.26-2.61,2.25-4.3,2.96s-3.51,1.07-5.46,1.07c-2.44,0-4.65-.52-6.62-1.55-1.97-1.04-3.52-2.47-4.64-4.3-1.12-1.83-1.68-3.9-1.68-6.22s.56-4.4,1.68-6.25c1.12-1.85,2.66-3.29,4.64-4.33,1.97-1.04,4.18-1.56,6.62-1.56,1.91,0,3.69.35,5.34,1.04ZM1391.14,678.04c1,2.04,2.49,3.74,4.48,5.12,1.95-1.46,3.45-3.24,4.48-5.34,1.04-2.09,1.56-4.16,1.56-6.19v-2.5h6.16v2.5c0,2.81.79,5.34,2.38,7.59,1.59,2.26,3.92,3.89,7.02,4.91l-3.11,4.63c-4.51-1.63-7.67-4.62-9.46-8.97-.85,2.12-2.03,4-3.54,5.64-1.51,1.65-3.32,2.92-5.43,3.81-4.27-1.67-7.28-4.74-9.03-9.21-.9,1.95-2.14,3.69-3.72,5.21-1.59,1.53-3.48,2.69-5.67,3.51l-2.99-4.63c3.05-1.06,5.37-2.75,6.96-5.06s2.38-4.8,2.38-7.44v-2.5h6.04v2.5c0,2.24.5,4.37,1.49,6.4ZM1380.25,648.63c-1.3,1.26-1.95,2.91-1.95,4.94s.65,3.67,1.95,4.91,2.97,1.86,5,1.86,3.64-.62,4.94-1.86c1.3-1.24,1.95-2.88,1.95-4.91s-.65-3.68-1.95-4.94c-1.3-1.26-2.95-1.89-4.94-1.89s-3.7.63-5,1.89ZM1398.06,653.57c0,.98-.12,1.95-.37,2.93h8.72v-6.1h-8.79c.29.98.43,2.04.43,3.17Z" fill="#fff"/>
        <path d="M1461.2,666.32h-44.59v-5.06h44.59v5.06ZM1444.21,646.65c1.36,1.73,3.3,3.22,5.83,4.48,2.52,1.26,5.45,2.1,8.78,2.5l-2.13,5c-4.11-.57-7.7-1.72-10.77-3.45-3.07-1.73-5.4-3.89-6.98-6.5-1.59,2.56-3.92,4.72-6.98,6.46-3.07,1.75-6.64,2.91-10.71,3.48l-2.32-5c3.38-.45,6.33-1.29,8.88-2.53,2.54-1.24,4.49-2.72,5.86-4.45,1.36-1.73,2.04-3.51,2.04-5.34v-1.83h6.47v1.83c0,1.83.68,3.61,2.04,5.34ZM1428.14,673.95h21.17v-4.7h6.16v19.58h-33.49v-19.58h6.16v4.7ZM1449.3,683.77v-4.94h-21.17v4.94h21.17Z" fill="#fff"/>
        <path d="M1470.65,671.39c7.64-.12,14.78-.87,21.41-2.26l.79,5.31c-7.44,1.59-15.52,2.38-24.22,2.38h-4.27v-33h6.28v27.57ZM1502.55,689.44h-6.22v-50.51h6.22v50.51Z" fill="#fff"/>
        <path d="M1531.65,648.88h-16.71v23c3.98-.04,7.54-.18,10.67-.43s6.26-.65,9.39-1.22l.73,5.43c-3.54.61-7.04,1.02-10.49,1.22-3.46.2-7.61.3-12.44.3h-4.09v-33.49h22.94v5.18ZM1545.07,658.03h7.44v5.19h-7.44v26.29h-6.22v-50.57h6.22v19.09Z" fill="#fff"/>
        <path d="M1555.62,679.93c.69-.73,1.65-1.1,2.87-1.1s2.19.37,2.9,1.1c.71.73,1.07,1.65,1.07,2.74s-.35,1.98-1.04,2.65c-.69.67-1.67,1.01-2.93,1.01s-2.18-.34-2.87-1.01c-.69-.67-1.04-1.56-1.04-2.65s.35-2.01,1.04-2.74Z" fill="#fff"/>
      </g>
      <g>
        <path d="M301.58,716.73c1.93,1.46,3.45,3.55,4.54,6.25,1.1,2.71,1.65,5.85,1.65,9.42s-.55,6.72-1.65,9.42c-1.1,2.71-2.61,4.79-4.54,6.25-1.93,1.46-4.12,2.2-6.56,2.2s-4.7-.73-6.65-2.2c-1.95-1.46-3.48-3.55-4.58-6.25-1.1-2.7-1.65-5.85-1.65-9.42s.55-6.72,1.65-9.42c1.1-2.7,2.62-4.79,4.58-6.25,1.95-1.46,4.17-2.2,6.65-2.2s4.63.73,6.56,2.2ZM290.02,723.47c-1.22,2.13-1.83,5.11-1.83,8.94s.61,6.74,1.83,8.88c1.22,2.13,2.89,3.2,5,3.2s3.66-1.07,4.88-3.2c1.22-2.13,1.83-5.09,1.83-8.88s-.61-6.75-1.83-8.91c-1.22-2.16-2.85-3.23-4.88-3.23s-3.78,1.07-5,3.2ZM321.38,761.45h-6.28v-50.57h6.28v50.57Z" fill="#fff"/>
        <path d="M370.17,739h-44.41v-5.12h17.02v-9.52h6.22v9.52h21.17v5.12ZM352.79,749.46c1.26,1.69,3.11,3.12,5.55,4.3,2.44,1.18,5.35,1.99,8.72,2.44l-2.32,5c-3.9-.53-7.33-1.62-10.28-3.26-2.95-1.65-5.18-3.67-6.68-6.07-1.55,2.44-3.78,4.47-6.71,6.1-2.93,1.63-6.37,2.7-10.31,3.23l-2.26-5c3.38-.45,6.26-1.26,8.66-2.44,2.4-1.18,4.23-2.61,5.49-4.3,1.26-1.69,1.89-3.49,1.89-5.4v-1.65h6.34v1.65c0,1.91.63,3.71,1.89,5.4ZM364.81,717.04c0,2.68-.07,5.04-.21,7.08-.14,2.03-.48,4.31-1.01,6.83l-6.16-.61c.73-3.7,1.1-7.75,1.1-12.14h-27.69v-4.94h33.98v3.78Z" fill="#fff"/>
        <path d="M402.75,758.95h-5.86v-23.97h-4.45c-.28,4.96-1.37,8.84-3.26,11.65-1.89,2.81-4.36,4.21-7.41,4.21-2.16,0-4.03-.73-5.61-2.2-1.59-1.46-2.82-3.56-3.69-6.28-.88-2.72-1.31-5.94-1.31-9.64s.44-6.9,1.31-9.61c.87-2.7,2.1-4.79,3.69-6.25,1.59-1.46,3.46-2.2,5.61-2.2,2.97,0,5.4,1.35,7.29,4.06,1.89,2.71,3,6.42,3.32,11.13h4.51v-18.12h5.86v47.21ZM378.2,723.81c-.88,2.07-1.31,5.04-1.31,8.91s.44,6.83,1.31,8.91c.87,2.07,2.06,3.11,3.57,3.11,1.59,0,2.81-1.03,3.66-3.08.85-2.05,1.28-5.03,1.28-8.94s-.43-6.88-1.28-8.94c-.85-2.05-2.07-3.08-3.66-3.08s-2.69,1.04-3.57,3.11ZM412.93,761.39h-5.98v-50.51h5.98v50.51Z" fill="#fff"/>
        <path d="M437,736.28c2.09,4.09,5.05,7.03,8.88,8.81l-3.72,5.12c-5.37-2.76-9.17-7.67-11.41-14.7-1.1,3.54-2.64,6.66-4.64,9.36-1.99,2.71-4.35,4.77-7.08,6.19l-3.84-5.19c2.6-1.26,4.83-3.09,6.68-5.49,1.85-2.4,3.25-5.12,4.21-8.17.96-3.05,1.43-6.18,1.43-9.39v-7.93h6.34v7.93c0,4.88,1.05,9.36,3.14,13.45ZM456.73,761.45h-6.16v-29.16h-10.06v-5.19h10.06v-16.23h6.16v50.57Z" fill="#fff"/>
        <path d="M505.41,740.95h-44.77v-5h44.77v5ZM500.59,760.23h-34.65v-14.88h6.34v9.76h28.3v5.12ZM500.41,730.09h-34.04v-17.45h6.28v12.38h27.75v5.06Z" fill="#fff"/>
        <path d="M519.01,714.35h28v5.55h-21.11v12.81h18.24v5.49h-18.24v14.21h21.29v5.55h-28.18v-43.62Z" fill="#fff"/>
        <path d="M568.11,751.63c1.3-1.1,2.03-2.52,2.2-4.27h6.28c-.08,2.03-.72,3.92-1.92,5.64-1.2,1.73-2.79,3.09-4.76,4.09-1.97,1-4.12,1.5-6.44,1.5-3.17,0-5.86-.72-8.05-2.17-2.2-1.44-3.84-3.39-4.94-5.83-1.1-2.44-1.65-5.19-1.65-8.24v-1.16c0-3.05.55-5.79,1.65-8.23,1.1-2.44,2.75-4.38,4.94-5.83,2.2-1.44,4.86-2.17,7.99-2.17,2.56,0,4.82.51,6.77,1.53,1.95,1.02,3.49,2.43,4.61,4.24,1.12,1.81,1.72,3.89,1.8,6.25h-6.28c-.12-1.95-.8-3.56-2.04-4.82-1.24-1.26-2.88-1.89-4.91-1.89-2.85,0-4.87,1.04-6.07,3.11-1.2,2.07-1.8,4.68-1.8,7.81v1.16c0,3.17.6,5.79,1.8,7.84,1.2,2.05,3.22,3.08,6.07,3.08,1.87,0,3.46-.55,4.76-1.65Z" fill="#fff"/>
        <path d="M581.78,714.35h6.65v43.62h-6.65v-43.62Z" fill="#fff"/>
        <path d="M596.42,714.38c.69-.67,1.63-1.01,2.81-1.01s2.11.33,2.81,1.01c.69.67,1.04,1.54,1.04,2.59s-.35,1.92-1.04,2.59c-.69.67-1.63,1.01-2.81,1.01s-2.11-.34-2.81-1.01c-.69-.67-1.04-1.53-1.04-2.59s.35-1.92,1.04-2.59ZM595.87,725.58h6.65v32.39h-6.65v-32.39Z" fill="#fff"/>
        <path d="M608.25,725.58h6.1l.3,3.35c2.28-2.64,5.27-3.96,8.97-3.96,4.03,0,7.14,1.49,9.33,4.45,2.2,2.97,3.29,6.97,3.29,12.02v.67c0,3.17-.49,6.01-1.46,8.51-.98,2.5-2.41,4.45-4.3,5.86-1.89,1.4-4.14,2.1-6.74,2.1-3.7,0-6.65-1.22-8.85-3.66v15.49h-6.65v-44.83ZM627.68,733.54c-1.32-2.05-3.3-3.08-5.95-3.08-3.13,0-5.41,1.32-6.83,3.96v14.82c1.46,2.68,3.76,4.03,6.89,4.03,2.6,0,4.56-1.05,5.89-3.14,1.32-2.09,1.98-4.77,1.98-8.02v-.67c0-3.21-.66-5.85-1.98-7.9Z" fill="#fff"/>
        <path d="M657.26,746.23c-.96-.79-2.86-1.5-5.7-2.1-3.78-.77-6.67-1.91-8.66-3.42-1.99-1.5-2.99-3.54-2.99-6.1,0-1.75.51-3.35,1.53-4.82,1.02-1.46,2.46-2.63,4.33-3.51,1.87-.87,4.03-1.31,6.47-1.31,2.6,0,4.87.45,6.8,1.34,1.93.9,3.42,2.12,4.45,3.66,1.04,1.55,1.55,3.27,1.55,5.18h-6.65c0-1.38-.55-2.59-1.65-3.63-1.1-1.04-2.6-1.56-4.51-1.56s-3.3.43-4.3,1.28c-1,.85-1.49,1.89-1.49,3.11s.48,2.1,1.43,2.75c.95.65,2.79,1.28,5.52,1.89,4.03.85,7.01,2.03,8.97,3.54,1.95,1.5,2.93,3.62,2.93,6.34,0,1.87-.54,3.54-1.62,5s-2.59,2.61-4.54,3.45c-1.95.83-4.21,1.25-6.77,1.25-2.81,0-5.24-.51-7.29-1.53-2.05-1.02-3.61-2.34-4.67-3.96-1.06-1.63-1.59-3.38-1.59-5.25h6.53c.08,1.91.81,3.33,2.2,4.27,1.38.94,3.01,1.4,4.88,1.4,1.99,0,3.54-.4,4.64-1.19,1.1-.79,1.65-1.82,1.65-3.08s-.48-2.23-1.43-3.02Z" fill="#fff"/>
        <path d="M675.17,756.54c-2.32-1.36-4.11-3.23-5.37-5.61-1.26-2.38-1.89-5.07-1.89-8.08,0-3.7.65-6.9,1.95-9.61,1.3-2.7,3.05-4.76,5.25-6.16s4.64-2.1,7.32-2.1c4.51,0,7.92,1.44,10.22,4.33,2.3,2.89,3.45,6.73,3.45,11.53v2.93h-21.47c.16,2.77,1.05,5.04,2.65,6.83,1.61,1.79,3.71,2.68,6.31,2.68,3.38,0,6.14-1.4,8.3-4.21l3.66,3.36c-1.18,1.79-2.79,3.26-4.82,4.42-2.03,1.16-4.54,1.74-7.5,1.74s-5.73-.68-8.05-2.04ZM677.3,732.5c-1.34,1.49-2.2,3.57-2.56,6.25h14.76v-.55c-.12-2.28-.75-4.17-1.89-5.67s-2.89-2.26-5.25-2.26c-2.03,0-3.72.74-5.06,2.23Z" fill="#fff"/>
        <path d="M710.97,714.35h6.89v43.62h-6.89v-43.62Z" fill="#fff"/>
        <path d="M747.97,716.89c2.95,1.69,5.24,4.09,6.86,7.2,1.63,3.11,2.44,6.74,2.44,10.89v2.38c0,4.15-.81,7.78-2.44,10.89-1.63,3.11-3.93,5.51-6.92,7.2-2.99,1.69-6.48,2.53-10.46,2.53h-12.32v-43.62h12.69c3.82,0,7.21.84,10.16,2.53ZM732.02,752.42h5.43c4.19,0,7.39-1.33,9.61-4,2.22-2.66,3.32-6.35,3.32-11.07v-2.44c0-4.8-1.09-8.5-3.26-11.1-2.18-2.6-5.28-3.9-9.3-3.9h-5.8v32.51Z" fill="#fff"/>
        <path d="M762.76,714.35h28v5.55h-21.11v12.81h18.24v5.49h-18.24v14.21h21.29v5.55h-28.18v-43.62Z" fill="#fff"/>
        <path d="M826.63,728.45l.43,4.21c-3.01.69-6.16,1.16-9.46,1.4v7.62h-6.04v-7.2c-2.32.08-5.47.12-9.46.12l-.67-4.82c11.06,0,19.46-.45,25.19-1.34ZM822.14,714.63c1.97,1.36,2.96,3.2,2.96,5.52s-.99,4.05-2.96,5.43-4.57,2.07-7.78,2.07-5.87-.69-7.84-2.07-2.96-3.19-2.96-5.43.99-4.16,2.96-5.52c1.97-1.36,4.58-2.04,7.84-2.04s5.8.68,7.78,2.04ZM810.61,717.83c-.87.53-1.31,1.3-1.31,2.32s.44,1.73,1.31,2.26c.87.53,2.12.79,3.75.79s2.9-.26,3.81-.79c.92-.53,1.37-1.28,1.37-2.26s-.46-1.79-1.37-2.32-2.19-.79-3.81-.79-2.88.26-3.75.79ZM815.77,747.42h22.02v-3.72h6.28v17.08h-34.53v-17.08h6.22v3.72ZM837.79,755.83v-3.54h-22.02v3.54h22.02ZM834.68,741.93h-5.86v-2.01h-7.62v-4.33h7.62v-23.85h5.86v30.2ZM844.07,741.99h-6.04v-31.11h6.04v31.11Z" fill="#fff"/>
        <path d="M868.59,747.23v-4.7c-2.68-.49-4.81-1.54-6.38-3.17-1.57-1.63-2.35-3.62-2.35-5.98,0-2.81,1.1-5.07,3.29-6.8,2.2-1.73,5.08-2.59,8.66-2.59,2.28,0,4.32.4,6.13,1.19s3.22,1.9,4.24,3.32c1.02,1.42,1.53,3.05,1.53,4.88,0,2.36-.8,4.36-2.41,6.01-1.61,1.65-3.75,2.71-6.44,3.2v4.39c4.84-.28,8.8-.65,11.89-1.1l.43,4.64c-4.64.9-9.35,1.46-14.15,1.71-4.8.24-10.13.37-15.98.37l-.85-5.25c5.25,0,9.37-.04,12.38-.12ZM886.28,721.67h-29.16v-5h11.47v-5.55h6.28v5.55h11.41v5ZM867.43,730.09c-1.1.81-1.65,1.91-1.65,3.29s.55,2.53,1.65,3.32c1.1.79,2.56,1.19,4.39,1.19s3.22-.4,4.3-1.19c1.08-.79,1.62-1.9,1.62-3.32s-.54-2.48-1.62-3.29c-1.08-.81-2.51-1.22-4.3-1.22s-3.29.41-4.39,1.22ZM895.62,731.68h6.71v5.31h-6.71v24.4h-6.28v-50.51h6.28v20.8Z" fill="#fff"/>
        <path d="M926.97,719.11h9.58v-8.17h6.28v36.72h-6.28v-12.63h-9.58v4.33h-23v-24.28h23v4.03ZM910.07,734.36h10.8v-14.21h-10.8v14.21ZM943.93,760.41h-33.43v-16.1h6.34v10.98h27.08v5.12ZM936.55,729.97v-5.73h-9.58v5.73h9.58Z" fill="#fff"/>
        <path d="M991.38,736.74h-44.59v-5.06h44.59v5.06ZM982.08,713.9c3.07,1.48,4.61,3.61,4.61,6.37s-1.54,4.9-4.61,6.41c-3.07,1.5-7.39,2.26-12.96,2.26s-9.96-.75-13.05-2.26c-3.09-1.5-4.64-3.64-4.64-6.41s1.54-4.89,4.61-6.37,7.43-2.23,13.08-2.23,9.89.74,12.96,2.23ZM985.89,752.48h-27.63v3.6h28.91v4.88h-35.08v-12.99h27.63v-3.23h-27.76v-4.7h33.92v12.44ZM960.79,717.37c-1.89.67-2.84,1.64-2.84,2.9,0,1.34.92,2.34,2.78,2.99,1.85.65,4.65.98,8.39.98s6.54-.32,8.39-.98c1.85-.65,2.78-1.65,2.78-2.99,0-1.26-.94-2.23-2.81-2.9-1.87-.67-4.66-1.01-8.36-1.01s-6.44.33-8.33,1.01Z" fill="#fff"/>
        <path d="M1046.53,755.29h-44.71v-5.19h19.15v-9.76h-14.21v-26.17h6.22v8.17h22.26v-8.17h6.22v26.17h-14.27v9.76h19.34v5.19ZM1035.24,735.22v-7.75h-22.26v7.75h22.26Z" fill="#fff"/>
        <path d="M1071.84,722.53h9.88v-11.65h6.16v50.57h-6.16v-20.07h-9.88v7.5h-23.12v-33.37h23.12v7.01ZM1054.88,743.94h10.86v-23.48h-10.86v23.48ZM1081.72,736.19v-8.48h-9.88v8.48h9.88Z" fill="#fff"/>
        <path d="M1142.9,747.9h-6.28v-12.38h-11.47c-1.18,1.34-2.6,2.39-4.27,3.14-1.67.75-3.48,1.13-5.43,1.13-2.4,0-4.58-.56-6.56-1.68-1.97-1.12-3.53-2.64-4.67-4.58-1.14-1.93-1.71-4.12-1.71-6.56s.57-4.72,1.71-6.71c1.14-1.99,2.69-3.55,4.67-4.67,1.97-1.12,4.16-1.68,6.56-1.68,1.95,0,3.77.38,5.46,1.13,1.69.75,3.12,1.82,4.3,3.2h11.41v-7.32h6.28v36.97ZM1110.39,721.64c-1.3,1.32-1.95,3.1-1.95,5.34s.66,3.89,1.98,5.22c1.32,1.32,3,1.98,5.03,1.98s3.65-.66,4.97-1.98c1.32-1.32,1.98-3.06,1.98-5.22s-.66-4.02-1.98-5.34-2.98-1.98-4.97-1.98-3.76.66-5.06,1.98ZM1144.13,760.41h-33.37v-16.17h6.16v11.04h27.21v5.12ZM1128.26,726.98c0,1.06-.14,2.2-.43,3.42h8.78v-7.01h-8.78c.28,1.1.43,2.3.43,3.6Z" fill="#2ca6e0"/>
        <path d="M1191.46,738.27h-44.59v-5.06h44.59v5.06ZM1174.47,718.59c1.36,1.73,3.3,3.22,5.83,4.48s5.45,2.09,8.78,2.5l-2.13,5c-4.11-.57-7.7-1.72-10.77-3.45-3.07-1.73-5.4-3.89-6.98-6.5-1.59,2.56-3.92,4.72-6.98,6.47-3.07,1.75-6.64,2.91-10.71,3.48l-2.32-5c3.38-.45,6.33-1.29,8.88-2.53,2.54-1.24,4.49-2.72,5.86-4.45,1.36-1.73,2.04-3.51,2.04-5.34v-1.83h6.47v1.83c0,1.83.68,3.61,2.04,5.34ZM1158.4,745.89h21.17v-4.7h6.16v19.58h-33.49v-19.58h6.16v4.7ZM1179.56,755.71v-4.94h-21.17v4.94h21.17Z" fill="#2ca6e0"/>
        <path d="M1236.48,736.74h-44.59v-5.06h44.59v5.06ZM1227.17,713.9c3.07,1.48,4.61,3.61,4.61,6.37s-1.54,4.9-4.61,6.41c-3.07,1.5-7.39,2.26-12.96,2.26s-9.96-.75-13.05-2.26c-3.09-1.5-4.64-3.64-4.64-6.41s1.54-4.89,4.61-6.37,7.43-2.23,13.08-2.23,9.89.74,12.96,2.23ZM1230.99,752.48h-27.63v3.6h28.91v4.88h-35.08v-12.99h27.63v-3.23h-27.76v-4.7h33.92v12.44ZM1205.89,717.37c-1.89.67-2.84,1.64-2.84,2.9,0,1.34.92,2.34,2.78,2.99,1.85.65,4.65.98,8.39.98s6.54-.32,8.39-.98c1.85-.65,2.78-1.65,2.78-2.99,0-1.26-.94-2.23-2.81-2.9-1.87-.67-4.66-1.01-8.36-1.01s-6.44.33-8.33,1.01Z" fill="#2ca6e0"/>
        <path d="M1268.68,730.03c2.03,2.73,4.94,4.7,8.72,5.92l-3.11,5c-2.68-.89-5.02-2.24-7.01-4.03-1.99-1.79-3.56-3.9-4.7-6.34-1.14,2.64-2.74,4.95-4.79,6.92-2.05,1.97-4.48,3.45-7.29,4.42l-3.29-5c3.82-1.3,6.79-3.42,8.91-6.34,2.11-2.93,3.17-6.1,3.17-9.52v-1.28h-10.37v-5.12h26.84v5.12h-10.13v1.28c0,3.25,1.02,6.24,3.05,8.97ZM1289,760.41h-33.73v-16.23h6.22v11.1h27.51v5.12ZM1287.72,747.54h-6.28v-36.6h6.28v36.6Z" fill="#2ca6e0"/>
        <path d="M1315.96,721.25h-24.28v-4.94h9.09v-4.94h6.16v4.94h9.03v4.94ZM1311.54,725.7c1.97,1.63,2.96,3.74,2.96,6.34s-.99,4.7-2.96,6.28c-1.97,1.59-4.54,2.38-7.72,2.38s-5.56-.79-7.53-2.38c-1.97-1.59-2.96-3.68-2.96-6.28s.99-4.72,2.96-6.34c1.97-1.63,4.48-2.44,7.53-2.44s5.74.81,7.72,2.44ZM1300.25,729.03c-.92.75-1.37,1.76-1.37,3.02s.46,2.27,1.37,3.02c.92.75,2.1,1.13,3.57,1.13,1.55,0,2.78-.38,3.69-1.13.91-.75,1.37-1.76,1.37-3.02s-.46-2.27-1.37-3.02c-.92-.75-2.15-1.13-3.69-1.13-1.46,0-2.65.38-3.57,1.13ZM1329.62,745.62c2.97,1.57,4.45,3.79,4.45,6.68s-1.49,5.06-4.45,6.65c-2.97,1.59-7.12,2.38-12.44,2.38s-9.34-.79-12.29-2.38c-2.95-1.59-4.42-3.8-4.42-6.65s1.47-5.11,4.42-6.68c2.95-1.57,7.04-2.35,12.29-2.35s9.47.78,12.44,2.35ZM1306.69,752.3c0,1.34.89,2.38,2.68,3.11,1.79.73,4.39,1.1,7.81,1.1s6.09-.37,7.9-1.1c1.81-.73,2.71-1.77,2.71-3.11,0-2.85-3.54-4.27-10.61-4.27s-10.49,1.42-10.49,4.27ZM1333.77,742.54h-5.92v-13.6h-4.51v11.96h-5.86v-29.04h5.86v11.9h4.51v-12.87h5.92v31.66Z" fill="#2ca6e0"/>
        <path d="M1366.04,719.78h-28.97v-4.88h11.35v-4.45h6.28v4.45h11.35v4.88ZM1360.3,723.54c2.15,1.49,3.23,3.49,3.23,6.01s-1.08,4.52-3.23,6.01c-2.16,1.49-5.06,2.23-8.72,2.23s-6.59-.74-8.78-2.23c-2.2-1.48-3.29-3.49-3.29-6.01s1.1-4.52,3.29-6.01c2.2-1.48,5.12-2.23,8.78-2.23s6.57.74,8.72,2.23ZM1375.61,752.79h-25.86v3.48h27.39v4.7h-33.55v-12.57h25.86v-3.29h-25.92v-4.7h32.09v12.38ZM1347.19,726.77c-1.06.67-1.59,1.6-1.59,2.78s.52,2.13,1.56,2.75c1.04.61,2.51.92,4.42.92s3.33-.31,4.39-.95c1.06-.63,1.59-1.53,1.59-2.71s-.54-2.1-1.62-2.78-2.53-1.01-4.36-1.01-3.33.34-4.39,1.01ZM1375.61,722.04h6.77v5.18h-6.77v11.04h-6.22v-27.45h6.22v11.22Z" fill="#fff"/>
        <path d="M1436.55,743.82h-19.28v17.57h-6.22v-17.57h-19.09v-5.25h44.59v5.25ZM1419.75,721.19c1.4,1.99,3.41,3.7,6.01,5.12,2.6,1.42,5.61,2.38,9.03,2.87l-2.38,5.12c-4.15-.65-7.79-1.95-10.92-3.9-3.13-1.95-5.51-4.35-7.14-7.2-1.59,2.85-3.96,5.25-7.11,7.2s-6.78,3.25-10.89,3.9l-2.44-5.12c3.42-.49,6.42-1.44,9.03-2.87,2.6-1.42,4.61-3.13,6.01-5.12,1.4-1.99,2.1-4.05,2.1-6.16v-2.62h6.59v2.62c0,2.12.7,4.17,2.1,6.16Z" fill="#fff"/>
        <path d="M1467.88,715.12c2.01,1.04,3.59,2.47,4.73,4.3,1.14,1.83,1.71,3.9,1.71,6.22s-.57,4.33-1.71,6.16c-1.14,1.83-2.71,3.25-4.73,4.27-2.01,1.02-4.26,1.53-6.74,1.53s-4.74-.51-6.77-1.53c-2.03-1.02-3.63-2.44-4.79-4.27-1.16-1.83-1.74-3.88-1.74-6.16s.58-4.39,1.74-6.22c1.16-1.83,2.75-3.26,4.79-4.3,2.03-1.04,4.29-1.56,6.77-1.56s4.73.52,6.74,1.56ZM1466.01,749.95c1.02,2.01,2.5,3.67,4.45,4.97,2.03-1.42,3.56-3.14,4.57-5.15,1.02-2.01,1.53-4.06,1.53-6.13v-1.95h6.16v1.95c0,2.77.78,5.27,2.35,7.5,1.56,2.24,3.89,3.86,6.98,4.88l-2.99,4.64c-2.28-.81-4.22-1.98-5.83-3.51-1.61-1.53-2.86-3.33-3.75-5.4-1.79,4.51-4.76,7.64-8.91,9.39-2.16-.85-4-2.07-5.52-3.66-1.53-1.59-2.7-3.42-3.51-5.49-1.87,4.15-5,7.03-9.39,8.66l-3.05-4.64c3.05-1.1,5.38-2.79,6.98-5.06s2.41-4.72,2.41-7.32v-1.95h5.98v1.95c0,2.2.51,4.3,1.53,6.31ZM1455.98,720.76c-1.32,1.22-1.98,2.85-1.98,4.88s.66,3.65,1.98,4.85c1.32,1.2,3.04,1.8,5.16,1.8s3.77-.6,5.09-1.8c1.32-1.2,1.98-2.82,1.98-4.85s-.66-3.66-1.98-4.88-3.02-1.83-5.09-1.83-3.83.61-5.16,1.83ZM1487.79,739.49h-6.22v-28.55h6.22v28.55Z" fill="#fff"/>
        <path d="M1536.59,738.27h-44.59v-5.06h44.59v5.06ZM1519.6,718.59c1.36,1.73,3.3,3.22,5.83,4.48s5.45,2.09,8.78,2.5l-2.13,5c-4.11-.57-7.7-1.72-10.77-3.45-3.07-1.73-5.4-3.89-6.98-6.5-1.59,2.56-3.92,4.72-6.98,6.47-3.07,1.75-6.64,2.91-10.71,3.48l-2.32-5c3.38-.45,6.33-1.29,8.88-2.53,2.54-1.24,4.49-2.72,5.86-4.45,1.36-1.73,2.04-3.51,2.04-5.34v-1.83h6.47v1.83c0,1.83.68,3.61,2.04,5.34ZM1503.53,745.89h21.17v-4.7h6.16v19.58h-33.49v-19.58h6.16v4.7ZM1524.7,755.71v-4.94h-21.17v4.94h21.17Z" fill="#fff"/>
        <path d="M1546.05,743.33c7.64-.12,14.78-.87,21.41-2.26l.79,5.31c-7.44,1.59-15.52,2.38-24.22,2.38h-4.27v-33h6.28v27.57ZM1577.95,761.39h-6.22v-50.51h6.22v50.51Z" fill="#fff"/>
        <path d="M1607.04,720.82h-16.71v23c3.99-.04,7.54-.18,10.67-.43,3.13-.24,6.26-.65,9.39-1.22l.73,5.43c-3.54.61-7.04,1.02-10.49,1.22-3.46.2-7.6.31-12.44.31h-4.09v-33.49h22.94v5.18ZM1620.46,729.97h7.44v5.18h-7.44v26.29h-6.22v-50.57h6.22v19.09Z" fill="#fff"/>
        <path d="M1631.02,751.87c.69-.73,1.65-1.1,2.87-1.1s2.19.37,2.9,1.1c.71.73,1.07,1.65,1.07,2.74s-.35,1.98-1.04,2.65-1.67,1.01-2.93,1.01-2.18-.33-2.87-1.01-1.04-1.56-1.04-2.65.35-2.01,1.04-2.74Z" fill="#fff"/>
      </g>
    </g>
  </g>
  <g>
    <polygon points="966 1023 942.68 1022.77 942.68 1013.5 962.75 1013.5 962.75 1005.2 932.37 1005.2 932.37 1049.61 962.68 1049.61 962.68 1041.37 942.68 1041.37 942.68 1030.76 966 1031 966 1034 974 1027.17 966 1020 966 1023" fill="#ffc600"/>
    <path d="M825.19,1016.12c1.34-2.07,3.44-3.11,6.28-3.11s4.74.6,5.92,1.8c1.18,1.2,1.85,3.12,2.01,5.76h10.31c-.49-4.8-2.28-8.66-5.37-11.59-3.09-2.93-7.38-4.39-12.87-4.39-3.74,0-7.03.88-9.85,2.62-2.83,1.75-5.01,4.25-6.56,7.5-1.55,3.25-2.32,7.08-2.32,11.47v2.44c0,4.43.74,8.28,2.23,11.53,1.48,3.25,3.63,5.74,6.44,7.47,2.81,1.73,6.16,2.59,10.06,2.59,3.58,0,6.71-.66,9.39-1.98,2.68-1.32,4.77-3.16,6.25-5.52,1.48-2.36,2.31-5.06,2.47-8.11h-10.25c-.16,2.48-.86,4.3-2.1,5.46-1.24,1.16-3.16,1.74-5.76,1.74-3.01,0-5.15-1.03-6.41-3.08-1.26-2.05-1.89-5.42-1.89-10.1v-2.5c0-4.59.67-7.93,2.01-10Z" fill="#ffc600"/>
    <path d="M881.65,1007.27c-2.91-1.79-6.23-2.68-9.97-2.68s-7.08.89-10,2.68c-2.93,1.79-5.21,4.35-6.83,7.69-1.63,3.33-2.44,7.24-2.44,11.71v1.46c0,4.51.82,8.44,2.47,11.77,1.65,3.33,3.92,5.89,6.83,7.66,2.91,1.77,6.25,2.65,10.03,2.65s7.07-.88,9.97-2.65c2.91-1.77,5.16-4.32,6.77-7.66,1.61-3.33,2.41-7.26,2.41-11.77v-1.46c0-4.47-.81-8.38-2.44-11.71-1.63-3.33-3.89-5.9-6.8-7.69ZM880.52,1028.14c0,4.43-.76,7.83-2.29,10.19-1.52,2.36-3.69,3.54-6.5,3.54s-5.08-1.18-6.59-3.54c-1.5-2.36-2.26-5.75-2.26-10.19v-1.53c0-4.43.74-7.8,2.23-10.1,1.48-2.3,3.67-3.45,6.56-3.45s5.03,1.15,6.56,3.45c1.52,2.3,2.29,5.66,2.29,10.1v1.53Z" fill="#ffc600"/>
    <path d="M919.1,1007.91c-3.11-1.81-6.66-2.71-10.64-2.71h-14.09v44.41h14.03c4.03,0,7.59-.89,10.71-2.68,3.11-1.79,5.52-4.3,7.23-7.53,1.71-3.23,2.56-6.94,2.56-11.13v-1.71c0-4.15-.85-7.84-2.56-11.07-1.71-3.23-4.12-5.75-7.23-7.56ZM918.52,1028.26c0,4.31-.85,7.57-2.56,9.79-1.71,2.22-4.23,3.32-7.56,3.32h-3.72v-27.88h3.78c3.33,0,5.84,1.09,7.53,3.26,1.69,2.18,2.53,5.42,2.53,9.73v1.77Z" fill="#ffc600"/>
    <path d="M994.46,1034.72c3.5-3.62,6.05-6.7,7.66-9.24,1.61-2.54,2.41-5.24,2.41-8.08,0-4.07-1.25-7.22-3.75-9.46-2.5-2.24-6.15-3.35-10.95-3.35-3.13,0-5.89.66-8.26,1.98-2.38,1.32-4.22,3.11-5.52,5.37-1.3,2.26-1.95,4.75-1.95,7.47h9.88c0-2.03.5-3.7,1.49-5,1-1.3,2.39-1.95,4.18-1.95,1.59,0,2.81.52,3.69,1.56s1.31,2.47,1.31,4.3c0,1.22-.42,2.58-1.25,4.09-.83,1.5-2.21,3.29-4.12,5.37l-14.33,15.13v6.71h30.93v-7.93h-18.12l6.71-6.95Z" fill="#ffc600"/>
    <path d="M1023.87,1004.59c-4.72,0-8.44,1.55-11.16,4.67s-4.09,7.86-4.09,14.24v7.87c0,6.3,1.38,11.02,4.15,14.15,2.77,3.13,6.49,4.7,11.16,4.7s8.44-1.57,11.16-4.7c2.72-3.13,4.09-7.85,4.09-14.15v-7.87c0-6.38-1.37-11.13-4.12-14.24s-6.48-4.67-11.19-4.67ZM1029.29,1032.65c0,3.5-.45,5.98-1.34,7.44-.89,1.46-2.24,2.2-4.03,2.2s-3.15-.73-4.09-2.2c-.94-1.46-1.4-3.94-1.4-7.44v-10.61c0-3.46.46-5.91,1.37-7.35.92-1.44,2.27-2.17,4.06-2.17s3.14.72,4.06,2.17c.92,1.44,1.37,3.89,1.37,7.35v10.61Z" fill="#ffc600"/>
    <path d="M1062.17,1034.72c3.5-3.62,6.05-6.7,7.65-9.24,1.61-2.54,2.41-5.24,2.41-8.08,0-4.07-1.25-7.22-3.75-9.46-2.5-2.24-6.15-3.35-10.95-3.35-3.13,0-5.89.66-8.27,1.98s-4.22,3.11-5.52,5.37c-1.3,2.26-1.95,4.75-1.95,7.47h9.88c0-2.03.5-3.7,1.49-5,1-1.3,2.39-1.95,4.18-1.95,1.59,0,2.82.52,3.69,1.56.87,1.04,1.31,2.47,1.31,4.3,0,1.22-.42,2.58-1.25,4.09-.83,1.5-2.21,3.29-4.12,5.37l-14.33,15.13v6.71h30.93v-7.93h-18.12l6.71-6.95Z" fill="#ffc600"/>
    <path d="M1105.79,1027.22c-.98-2.32-2.41-4.15-4.3-5.49-1.89-1.34-4.18-2.01-6.86-2.01-3.34,0-6.22,1.14-8.66,3.42,0-6.95,2.01-10.43,6.04-10.43,1.42,0,2.55.37,3.38,1.1.83.73,1.35,1.55,1.56,2.44h9.76c0-2.11-.69-4.05-2.07-5.79-1.38-1.75-3.2-3.13-5.46-4.15s-4.69-1.53-7.29-1.53c-3.29,0-6.15.88-8.57,2.62-2.42,1.75-4.26,4.04-5.52,6.86-1.26,2.83-1.89,5.79-1.89,8.88v9.09c0,3.58.67,6.73,2.01,9.46s3.22,4.83,5.64,6.31c2.42,1.48,5.19,2.23,8.33,2.23s5.68-.67,8.02-2.01c2.34-1.34,4.15-3.17,5.43-5.49,1.28-2.32,1.92-4.9,1.92-7.75s-.49-5.43-1.46-7.75ZM1095.81,1040.21c-1.08,1.38-2.45,2.07-4.12,2.07-1.87,0-3.33-.72-4.36-2.17-1.04-1.44-1.56-3.57-1.56-6.38v-2.75c.53-1.02,1.27-1.84,2.23-2.47.96-.63,2.1-.95,3.45-.95,1.79,0,3.23.67,4.33,2.01s1.65,3.11,1.65,5.31-.54,3.92-1.62,5.31Z" fill="#ffc600"/>
    <path d="M870.54,986.8c1.35-.91,2.4-2.03,3.16-3.36.74,1.33,1.79,2.45,3.16,3.35,1.37.9,3.05,1.53,5.05,1.89l1.65-3.35c-1.87-.29-3.38-.81-4.54-1.58-1.15-.76-1.98-1.64-2.47-2.63-.5-.99-.74-2.02-.74-3.08v-1.49h-4.24v1.49c0,1.03-.25,2.04-.74,3.04-.5,1-1.32,1.89-2.47,2.67-1.15.78-2.65,1.31-4.48,1.58l1.67,3.35c1.98-.34,3.65-.97,5-1.88Z" fill="#fcfcfc"/>
    <polygon points="884.06 992.54 875.69 992.54 875.69 987.65 871.72 987.65 871.72 992.54 863.6 992.54 863.6 995.7 884.06 995.7 884.06 992.54" fill="#fcfcfc"/>
    <path d="M888.33,986.55h-2.62v3.13h17.17v-3.13h-2.67v-6.16h2.81v-3.24h-17.42v3.24h2.73v6.16ZM892.32,980.39h3.89v6.16h-3.89v-6.16Z" fill="#fcfcfc"/>
    <rect x="884.09" y="992.43" width="20.47" height="3.4" fill="#fcfcfc"/>
    <polygon points="922.94 986.79 910.87 986.79 910.87 984.95 922.27 984.95 922.27 981.85 910.87 981.85 910.87 980.09 922.81 980.09 922.81 976.83 906.88 976.83 906.88 989.97 922.94 989.97 922.94 986.79" fill="#fcfcfc"/>
    <rect x="904.58" y="992.57" width="20.47" height="3.27" fill="#fcfcfc"/>
    <rect x="941.46" y="975.39" width="3.78" height="22.87" fill="#fcfcfc"/>
    <path d="M928.05,984.79c.77.38,1.65.57,2.62.57s1.81-.19,2.57-.57c.76-.38,1.35-.9,1.77-1.57.42-.67.63-1.41.63-2.24s-.21-1.61-.63-2.3c-.42-.68-1.01-1.21-1.77-1.59-.76-.38-1.61-.57-2.57-.57s-1.85.19-2.62.57c-.77.38-1.38.91-1.81,1.59-.43.68-.65,1.45-.65,2.3s.22,1.58.65,2.24c.43.67,1.03,1.19,1.81,1.57ZM929.5,979.85c.27-.25.66-.38,1.16-.38.45,0,.81.13,1.09.39.28.26.42.63.42,1.12,0,.45-.14.8-.42,1.04-.28.24-.64.36-1.09.36-.49,0-.87-.12-1.15-.36-.28-.24-.42-.59-.42-1.04,0-.5.14-.88.41-1.13Z" fill="#fcfcfc"/>
    <polygon points="933.66 992.92 936.79 992.92 936.79 997.32 940.52 997.32 940.52 975.61 936.79 975.61 936.79 989.92 933.66 989.92 933.66 992.92" fill="#fcfcfc"/>
    <path d="M928.8,989.38v7.1h3.7v-7.32c1.37-.13,2.58-.3,3.65-.51l-.24-2.97c-1.53.22-3.2.35-5.02.41-1.82.05-3.87.08-6.16.08l.43,3.27c1.51,0,2.73-.02,3.65-.05Z" fill="#fcfcfc"/>
    <path d="M948.81,992.47c.9.67,1.92,1.01,3.05,1.01,1.04,0,1.99-.28,2.83-.84.85-.56,1.54-1.36,2.08-2.42s.87-2.29,1-3.71h3v11.8h3.92v-22.92h-3.92v7.91h-3.05c-.27-2.02-.93-3.6-1.98-4.75-1.05-1.15-2.35-1.73-3.88-1.73-1.13,0-2.15.34-3.05,1.03-.9.68-1.61,1.65-2.12,2.9-.51,1.25-.77,2.71-.77,4.39s.26,3.17.77,4.43c.51,1.26,1.22,2.23,2.12,2.9ZM950.28,981.66c.39-.77.91-1.16,1.58-1.16s1.22.39,1.62,1.17c.4.78.59,1.94.59,3.47s-.2,2.68-.59,3.44c-.4.77-.94,1.15-1.62,1.15s-1.19-.38-1.58-1.15c-.39-.76-.58-1.91-.58-3.44s.19-2.71.58-3.48Z" fill="#fcfcfc"/>
    <polygon points="974.3 990.33 974.3 997.94 990.12 997.94 990.12 994.75 978.24 994.75 978.24 990.33 974.3 990.33" fill="#fcfcfc"/>
    <rect x="985.64" y="975.42" width="4" height="16.33" fill="#fcfcfc"/>
    <path d="M970.65,986.49l2.05,3.1c2.39-.76,4.14-2.23,5.24-4.43,1.04,2,2.7,3.35,4.97,4.05l2-3.16c-1.71-.5-2.95-1.3-3.73-2.38-.77-1.08-1.2-2.3-1.27-3.67h4v-3.19h-12.26v3.19h4.18c-.07,1.44-.52,2.75-1.34,3.92-.82,1.17-2.1,2.03-3.85,2.57Z" fill="#fcfcfc"/>
    <path d="M1007.2,992.07c-1.36-.6-3.3-.9-5.82-.9s-4.54.3-5.9.89-2.04,1.48-2.04,2.65.68,2.09,2.04,2.7c1.36.61,3.33.92,5.9.92s4.46-.31,5.82-.92c1.36-.61,2.04-1.51,2.04-2.7s-.68-2.03-2.04-2.63ZM1004.39,995.29c-.55.09-1.55.13-3.01.13s-2.49-.04-3.04-.13-.82-.29-.82-.59c0-.27.29-.46.88-.57s1.58-.16,2.98-.16,2.39.05,2.97.16c.58.11.86.3.86.57,0,.31-.27.5-.82.59Z" fill="#fcfcfc"/>
    <polygon points="1010.64 976.83 1003.4 976.83 1003.4 975.31 999.35 975.31 999.35 976.83 992.14 976.83 992.14 979.82 1010.64 979.82 1010.64 976.83" fill="#fcfcfc"/>
    <path d="M1001.4,980.23c-2.48,0-4.4.28-5.74.84-1.34.56-2.01,1.37-2.01,2.43s.67,1.89,2.01,2.44c1.34.55,3.25.82,5.74.82s4.41-.27,5.74-.82,1.98-1.36,1.98-2.44-.66-1.89-1.98-2.44-3.24-.82-5.74-.82ZM1004.15,983.97c-.5.08-1.41.12-2.74.12s-2.2-.04-2.7-.12-.76-.24-.76-.47c0-.25.24-.41.72-.49.48-.07,1.39-.11,2.74-.11s2.31.04,2.78.11c.47.07.7.23.7.49,0,.23-.25.39-.74.47Z" fill="#fcfcfc"/>
    <rect x="991.2" y="987.41" width="20.41" height="3.02" fill="#fcfcfc"/>
    <rect x="1026.81" y="975.39" width="4" height="22.92" fill="#fcfcfc"/>
    <path d="M1019.48,993.73c2.22-.12,4.4-.4,6.52-.84l-.24-2.92c-3.33.45-7.98.67-13.96.67l.38,3.27c2.65,0,5.08-.06,7.3-.19Z" fill="#fcfcfc"/>
    <path d="M1015.7,987.65c.96.5,2.03.76,3.2.76s2.24-.25,3.21-.76c.97-.5,1.74-1.2,2.29-2.08s.84-1.87.84-2.97-.28-2.09-.84-2.97-1.32-1.57-2.29-2.07c-.97-.5-2.04-.74-3.21-.74s-2.24.25-3.21.74-1.74,1.18-2.29,2.07c-.56.88-.84,1.87-.84,2.97s.28,2.09.85,2.97c.57.88,1.33,1.58,2.29,2.08ZM1017.17,980.88c.45-.4,1.03-.59,1.73-.59s1.28.2,1.74.59c.46.4.69.97.69,1.73s-.23,1.31-.69,1.7c-.46.4-1.04.59-1.74.59s-1.28-.19-1.73-.58c-.45-.39-.68-.96-.68-1.71s.23-1.33.68-1.73Z" fill="#fcfcfc"/>
    <polygon points="1047.36 978.5 1044.09 978.5 1044.09 975.99 1040.2 975.99 1040.2 978.5 1036.8 978.5 1036.8 981.71 1047.36 981.71 1047.36 978.5" fill="#fcfcfc"/>
    <polygon points="1051.62 987.65 1052.65 987.65 1052.65 998.26 1056.4 998.26 1056.4 975.39 1052.65 975.39 1052.65 984.47 1051.62 984.47 1051.62 975.77 1047.9 975.77 1047.9 997.43 1051.62 997.43 1051.62 987.65" fill="#fcfcfc"/>
    <path d="M1044.71,992.88c.76-.48,1.34-1.14,1.75-1.98.41-.85.62-1.82.62-2.92s-.21-2.04-.62-2.89c-.41-.85-1-1.5-1.75-1.97s-1.61-.7-2.56-.7-1.78.24-2.54.72c-.76.48-1.35,1.13-1.78,1.97s-.65,1.79-.65,2.88.22,2.07.65,2.92c.43.85,1.02,1.51,1.77,1.98.75.48,1.6.72,2.55.72s1.81-.24,2.56-.72ZM1041.04,989.64c-.29-.37-.43-.92-.43-1.66s.14-1.27.43-1.66c.29-.39.66-.58,1.11-.58s.81.19,1.08.58c.27.39.4.94.4,1.66s-.13,1.29-.4,1.66c-.27.37-.63.55-1.08.55s-.82-.18-1.11-.55Z" fill="#fcfcfc"/>
  </g>
</svg>